<svg xmlns="http://www.w3.org/2000/svg" viewBox="0 0 64 64">
  <defs>
    <clipPath id="round"><circle cx="32" cy="32" r="30" /></clipPath>
    <linearGradient id="paper" x1="0" y1="0" x2="1" y2="1">
      <stop offset="0" stop-color="#f5f4f0" />
      <stop offset="1" stop-color="#d8d7d1" />
    </linearGradient>
  </defs>
  <circle cx="32" cy="32" r="30" fill="url(#paper)" />
  <g clip-path="url(#round)">
    <circle cx="32" cy="32" r="22" fill="#111111" />
    <path d="M23 21h17v5H29v5h8c4.6 0 7 2.6 7 6.5S41.6 45 37 45H22v-5h14c1.8 0 2.8-.8 2.8-2.3S37.8 35.5 36 35.5h-7c-4.7 0-7-2.6-7-7.2S24.2 21 29 21Z" fill="#f5f4f0" />
    <path d="M32 2a30 30 0 0 1 30 30" fill="none" stroke="#bd5b52" stroke-width="5" stroke-linecap="round" stroke-dasharray="18 170">
      <animateTransform attributeName="transform" type="rotate" from="0 32 32" to="360 32 32" dur="3.8s" repeatCount="indefinite" />
    </path>
    <circle cx="32" cy="5" r="3.5" fill="#bd5b52">
      <animateTransform attributeName="transform" type="rotate" from="0 32 32" to="360 32 32" dur="3.8s" repeatCount="indefinite" />
    </circle>
    <circle cx="32" cy="32" r="22" fill="none" stroke="#d9ff48" stroke-width="1" opacity=".5">
      <animate attributeName="r" values="21;24;21" dur="2.2s" repeatCount="indefinite" />
      <animate attributeName="opacity" values=".5;0;.5" dur="2.2s" repeatCount="indefinite" />
    </circle>
  </g>
  <circle cx="32" cy="32" r="30" fill="none" stroke="#111111" stroke-width="2" />
</svg>
