<svg xmlns="http://www.w3.org/2000/svg" width="1600" height="1000" viewBox="0 0 1600 1000">
  <defs>
    <linearGradient id="hero" x1="0" y1="0" x2="1" y2="1">
      <stop offset="0" stop-color="#eff4ee"/>
      <stop offset="1" stop-color="#dae8df"/>
    </linearGradient>
    <linearGradient id="image" x1="0" y1="0" x2="0" y2="1">
      <stop offset="0" stop-color="#b9d2c4"/>
      <stop offset="1" stop-color="#7fa997"/>
    </linearGradient>
  </defs>
  <rect width="1600" height="1000" fill="#fbfaf6"/>
  <rect x="0" y="0" width="1600" height="92" fill="#fbfaf6"/>
  <text x="90" y="59" fill="#17392f" font-family="Georgia, serif" font-size="30" font-style="italic" font-weight="700">Hometown Services</text>
  <g fill="#3d554d" font-family="Arial, sans-serif" font-size="15" font-weight="700">
    <text x="965" y="55">SERVICES</text>
    <text x="1072" y="55">ABOUT</text>
    <text x="1162" y="55">PROCESS</text>
  </g>
  <rect x="1285" y="28" width="220" height="45" rx="22.5" fill="#17392f"/>
  <text x="1331" y="57" fill="#fff" font-family="Arial, sans-serif" font-size="15" font-weight="700">REQUEST A QUOTE</text>
  <rect x="0" y="92" width="1600" height="500" fill="url(#hero)"/>
  <circle cx="1428" cy="140" r="240" fill="#d0e1d6" opacity=".55"/>
  <text x="90" y="191" fill="#255447" font-family="Arial, sans-serif" font-size="15" font-weight="700" letter-spacing="3">DEPENDABLE LOCAL SERVICE</text>
  <text x="90" y="276" fill="#17392f" font-family="Georgia, serif" font-size="77" font-weight="700">Professional care.</text>
  <text x="90" y="354" fill="#17392f" font-family="Georgia, serif" font-size="77" font-weight="700">A personal approach.</text>
  <text x="90" y="418" fill="#5d7069" font-family="Arial, sans-serif" font-size="23">Thoughtful service, clear communication, and work you can</text>
  <text x="90" y="453" fill="#5d7069" font-family="Arial, sans-serif" font-size="23">depend on from first conversation through completion.</text>
  <rect x="90" y="494" width="184" height="56" rx="28" fill="#17392f"/>
  <text x="133" y="529" fill="#fff" font-family="Arial, sans-serif" font-size="16" font-weight="700">GET STARTED</text>
  <rect x="1057" y="142" width="372" height="451" rx="186" fill="url(#image)"/>
  <rect x="1100" y="185" width="286" height="408" rx="143" fill="#d5e3db" opacity=".36"/>
  <path d="M1071 525C1146 416 1224 473 1280 353C1341 447 1394 464 1428 525V593H1071Z" fill="#5e907c" opacity=".65"/>
  <rect x="90" y="650" width="1420" height="1" fill="#d9e0db"/>
  <text x="90" y="719" fill="#255447" font-family="Arial, sans-serif" font-size="14" font-weight="700" letter-spacing="3">WHAT WE DO</text>
  <text x="90" y="778" fill="#17392f" font-family="Georgia, serif" font-size="50" font-weight="700">Service that earns your trust.</text>
  <g>
    <rect x="90" y="838" width="442" height="120" rx="14" fill="#fff" stroke="#dce4df"/>
    <rect x="579" y="838" width="442" height="120" rx="14" fill="#fff" stroke="#dce4df"/>
    <rect x="1068" y="838" width="442" height="120" rx="14" fill="#fff" stroke="#dce4df"/>
    <g fill="#17392f" font-family="Arial, sans-serif" font-size="18" font-weight="700">
      <text x="124" y="888">Thoughtful planning</text>
      <text x="613" y="888">Reliable delivery</text>
      <text x="1102" y="888">Ongoing support</text>
    </g>
    <g fill="#71817c" font-family="Arial, sans-serif" font-size="14">
      <text x="124" y="922">A clear path from the very start.</text>
      <text x="613" y="922">Professional work, done with care.</text>
      <text x="1102" y="922">A local team when you need one.</text>
    </g>
  </g>
</svg>
